<?xml version="1.0" encoding="utf-8"?>
<!-- Generator: Adobe Illustrator 23.1.0, SVG Export Plug-In . SVG Version: 6.00 Build 0)  -->
<svg version="1.1" id="Layer_1" xmlns="http://www.w3.org/2000/svg" xmlns:xlink="http://www.w3.org/1999/xlink" x="0px" y="0px"
	 viewBox="0 0 268.8 267.9" style="enable-background:new 0 0 268.8 267.9;" xml:space="preserve">
<style type="text/css">
	.st0{fill-rule:evenodd;clip-rule:evenodd;fill:#F44502;}
</style>
<g>
	<g>
		<polygon class="st0" points="44.2,159.4 41.7,152.5 46,146.5 38.7,146.8 34.3,140.9 32.3,147.9 25.3,150.2 31.4,154.4 31.5,161.7 
			37.2,157.2 		"/>
		<polygon class="st0" points="35.6,127.9 44.4,137.1 46.3,124.5 57.7,118.9 46.3,113.2 44.5,100.7 35.6,109.7 23.1,107.6 29,118.8 
			23,130.1 		"/>
		<path class="st0" d="M268,127.6C264.7,61.7,213.6,6.1,143.4,0.3c-5.4,0-10.9,0-16.3,0C60.1,3.8,5.6,55.6-0.2,124.9
			c0,5.9,0,11.8,0.1,17.7C4,207.6,53.8,261.7,123,268.4c5.9,0,11.8,0,17.7,0c66.6-3.4,121.5-55,127.3-124.6
			C268,138.5,268,133,268,127.6z M133.5,259.3C65,259.9,9.5,204,8.9,134C8.4,65.5,64.4,9.8,134.3,9.4c68.7-0.4,124,55.3,124.6,125.3
			C259.4,203.3,203.5,258.8,133.5,259.3z"/>
		<path class="st0" d="M198.4,91.2c-6.1-0.2-5.1,7.2-5.2,11.9c-0.1,4.1-0.5,10.1,4.9,10c5.2,0,4-6,4.5-10.3
			C201.6,98.9,203.3,91.4,198.4,91.2z"/>
		<path class="st0" d="M178.1,97.6c1.1,0.7,2.1,0,2.9-0.9c5-5.5,11.3-8.8,18.3-10.8c1.1-0.3,2.2-0.6,2.5-2c-0.1-1.3-1-1.7-2.2-1.8
			c-4.7-0.4-19.4,8.1-21.7,12.6C177.4,95.7,176.9,96.8,178.1,97.6z"/>
		<path class="st0" d="M222.8,103c2.8-5.8,4.9-11.7,4.3-18.2c-0.6-6.5-2.8-11-10.6-12.5c-11.5-2.2-22.7-6.1-30.6-15.6
			c-2-2.3-3.5-2-5.6-0.1c-7.1,6.7-11.9,14.7-13.1,24.4c-1.1,8.8-1.8,9.3-10.6,6.4c-2.3-0.8-4.7-1.7-6.8-2.9
			c-13.9-7.8-20.7-25.8-14.6-38c0.8-1.6,3.8-3.3,1.7-5.1c-2.1-1.9-4.1,0.9-5.7,2c-19.3,13.3-28,32.8-31.2,55.2
			c-1.2,8.2-2.1,16.4-4.6,24.4c-5,15.5-4,29.6,6.8,43c3.6,4.5,10.4,10,5.3,17.9c-1.5,2-2.7,5.1-5.2,0.7c-1-1.7-2.4-3.5-4.1-4.4
			c-9.3-4.9-17.3-11-22.1-20.7c-1.6-2.3-0.6-3.9,1.2-5.7c5.4-5.4,4.7-7.6-2.5-9.9c-8.7-2.8-10.6-11.5-3.9-17.7
			c1.3-1.2,2.9-2.1,4.3-3.2c6.1-4.4,6.2-6.4,0.3-10.9c-12.5-9.7-15.6-22-9-36.3c3.5-7.6,8.2-14.4,14.2-20.3
			c7.4-7.2,14.9-14.2,22.3-21.4c1.3-0.9,2.5-1.9,3.9-2.6c1.8-1,3-2.4,2.1-4.3c-1-2.2-3.1-1.5-4.7-0.9c-32.6,12-57,32.8-70.5,65.3
			c-0.6,1.4-2.8,3.2,0.2,4.3c2.1,0.8,3-0.5,3.9-2.4c3.4-6.9,6.6-13.8,10.7-20.2c10.8-16.9,25.6-29.3,44.4-36.6
			c-0.3,3.9-3.9,5.3-6.2,7.5c-9.8,9.4-19.2,19-24.4,31.8c-6,14.7-3.3,27.8,8.2,36.9c4.5,3.6,5.9,5.8-0.2,9.2
			c-5.5,3.1-7.9,8.5-6.9,14.9c1,6.3,5.3,9.6,11.4,10.8c0.6,0.1,1.1,0.6,1.7,1c-1.2,2.9-4.7,3.8-5.3,6.8c-4.9-1-9.8-3.1-14.7-0.1
			c-7.9,5-9,11.8-2.1,19.4c3.8,4.2,4.9,9,5.3,14c0.4,4.6-0.3,9.3-0.5,14c-2.6-0.4-3.4-2.7-4.6-4.5c-5.2-7.6-10.3-15.3-15.4-22.9
			c-0.7-1.1-1-2.8-2.8-1.9c-1.3,0.6-2,1.9-1.6,3.4c0.3,1.3,0.8,2.6,1.6,3.7c6.8,10.8,14.7,20.7,22.6,30.6c1,1.1,2.1,3.3,3.4,2
			c1.9-2,3.1-4.8,1-7.6c0,0,0,0,0,0c-2.3-11.3,0.9-19.8,12.4-24c7.7-2.2,15-1.9,21.2,4c0.8,0.7,1.9,1.4,1.5,2.7
			c-0.4,1.4-1.8,1-2.8,1.2c-4.5,0.9-9,1.9-13.5,2.7c-1.7,0.3-3.3,0.4-2.8,2.6c0.5,2.4,2.3,1.5,3.8,1.3c4.6-0.9,9.2-1.8,13.8-2.7
			c5.6-1.1,11.6,4.6,11,10.4c-0.2,1.9-1.3,1.9-2.7,2.1c-4.1,0.7-8.2,1.6-12.3,2.5c-1.2,0.3-3,0.1-2.4,2.2c0.4,1.3,1.2,2.1,3,1.5
			c3.3-1.1,7.1-0.4,10.3-2.3c8.1-1.5,4.9,4.8,5.6,8.3c-1.6,5.6-2.6,11.7-9.6,13.2c-1.6,0.4-3.1,0.3-3.1,2.6c0,2.1,1.8,2.6,3.1,2.9
			c5,1.3,10.1,2.2,15.1,3.4c43.4,9.8,77.7-6.3,106.5-37.8c6-6.5,5.6-6.8-1.5-12.4c-1-0.8-1.7-2-2.6-3.1c1-5.6,6.3-7.3,9.8-10.6
			c4.4-4,4.1-7.1-1.1-9.9c-12.9-7-13-8.1-1.5-17.5c0.3-0.3,0.7-0.6,1-0.9c7.6-6.7,7.2-12.1-1.2-17.7c-8.3-5.5-9.3-8.9-5.6-18
			C220,109.1,221.3,106,222.8,103z M72.7,180.2C72.7,180.2,72.7,180.2,72.7,180.2c-0.1,0-0.1,0.1-0.2,0.1c-3.1,0.6-6.2,3.2-9.3,4.3
			c-0.9-5.5-4.3-9.7-7.6-14.1c-3.1-4-2.6-7.9,1-11.1c0.5-0.4,1.1-0.7,1.2-1c6.5-0.9,11.6,1.5,15.9,6.4
			C79.2,171,79.1,174.5,72.7,180.2z M124,186.7c-6.7,5.2-7.6,11.8-2.6,17.2c-0.8,0.9-3.4,3.4-4.3,4.3l0,0c-3.3,0.2-3.4-2.1-4.3-3.9
			c-2.6-5.1-5.3-9.1-5.7-15c3.9-1.9,3.9-10,7.6-12C114.3,178.2,122.8,182.2,124,186.7z M129.3,197.6
			C129.3,197.7,129.3,197.7,129.3,197.6c-1.7,1.4-3.4,2.7-5.1,4.1c-0.5-0.5-1.4-1.3-1.5-1.3c-1.6-1.5-2.4-2.7-2.3-4
			c-0.3,2.5-0.3,1.9,0.2-0.9c0.4-1.5,4.9-5.9,4.9-6.1c5-6.3,7.6,2.1,13,1.3c-3.8,2.8-6.4,4.8-9,6.8
			C129.4,197.6,129.4,197.6,129.3,197.6z M120.5,195.6c0.2-1.3,0.6-2.6,1-3.9C121.1,193,120.8,194.3,120.5,195.6z M163.7,235.5
			c-19.1,5.4-38.2,3.2-57.8-1.8c3.9-4.7,5.9-10,7.5-15.5c0.4-0.4,0.8-0.9,1.2-1.4c0,0,0,0,0-0.1c1.6-1.3,2.9-3.4,5.7-6l0,0
			c4.7-3.2,7.1-8.8,12-11.8c8.6-6.8,21.3-0.1,26.6,8.2c1,4.3,3,6.8,8,7.2c4.9,0.4,9.8,0.5,14.7,0c10.8-1.2,20.4-6.1,30.3-10.1
			C199,219.7,182.8,230,163.7,235.5z M221.3,132.7c7.7,5.2,7.8,7.6,0.5,13.5c-1.4,1.1-2.9,2.2-4.2,3.4c-7.4,6.1-6.4,13.9,2.2,18.2
			c7.4,3.6,7.3,3.6,1,8.8c-2,1.7-4.5,3.1-5.6,5.6c-1.9,3.4-2.5,7.9-1.5,9.5c1.8,2.7,4.8,2,3.8,4.5c-0.4,0.9,0.1,1.1-2.7,2.2
			c-0.1,0-0.2,0.2-0.2,0.2c0,0,0,0-0.1-0.1c-13,6.6-26.1,13-41.2,12.8c-9.1-0.1-11.1-2-11.4-10.9c0.3-2.1,7.4-4.5,0.5-6.3
			c-16.4-4.2-32.3-9.3-46.1-19.5c-6.1-4.7-11-10.6-15.2-16.9c-4.8-7.2-6.4-15.4-3.9-23.9c4.3-14.2,5.4-29,8.1-43.5
			c2.4-13,8.6-24.6,17.3-34.7c1.5-1.8,3.2-3.7,5.6-2.9c2.6,0.8,1.1,3.5,1.3,5.3c1.1,19.1,16.9,34.4,35.5,34.5c4.3,0,6.5-0.5,5.9-6
			c-1-9.5,3.1-17.5,9.3-24.5c1.6-1.9,2.8-2.8,5.2-0.4c8.1,8,18.6,11.8,29.4,14.2c6.6,1.5,9,5.2,8.8,11.5c-0.1,4.1-1.3,8-2.9,11.7
			c-1.9,4.3-3.9,8.6-5.6,13C211.1,121.5,212.8,126.9,221.3,132.7z"/>
		<path class="st0" d="M173.9,126.1c-5.2,0.9-9.4,4.3-9.1,9.3c0.4,7.6-4,7.1-8.7,6.8c-2-0.1-3.9-0.8-5.9-1.3c-1.3-0.3-2.8-1-3.3,0.9
			c-0.4,1.7,1.1,2.2,2.3,2.8c2.7,1.2,5.6,1.7,7.9,1.5c8.1,0,14.6-2.7,21.1-6.2c4.1-2.3,4.4-5.2,2.9-9
			C179.9,127.5,177.5,125.5,173.9,126.1z M170.2,139.4c-2.2,0.4-2.2-1.8-1.9-3.4c0.8-3.4,2.8-5.7,6.3-6.1c2.7-0.3,2.9,2.2,3.7,3.9
			C176.6,137.4,173.4,138.8,170.2,139.4z"/>
		<path class="st0" d="M130.1,92.6c-2.1,0-3.8,1.6-3.8,3.6V111c0,2,1.7,3.6,3.8,3.6c2.1,0,3.8-1.6,3.8-3.6V96.2
			C133.9,94.2,132.2,92.6,130.1,92.6z"/>
	</g>
</g>
</svg>
