<?xml version="1.0" encoding="utf-8"?>
<!-- Generator: Adobe Illustrator 23.1.0, SVG Export Plug-In . SVG Version: 6.00 Build 0)  -->
<svg version="1.1" id="Layer_1" xmlns="http://www.w3.org/2000/svg" xmlns:xlink="http://www.w3.org/1999/xlink" x="0px" y="0px"
	 viewBox="0 0 83 82" style="enable-background:new 0 0 83 82;" xml:space="preserve">
<style type="text/css">
	.st0{fill:#F4EADB;}
	.st1{fill:#FEFEFE;}
	.st2{fill:#FAF5EF;}
	.st3{fill:#FE8233;}
	.st4{fill:#D42502;}
	.st5{fill:#D42401;}
	.st6{fill:#D52805;}
	.st7{fill:#D52806;}
	.st8{fill:#D52907;}
	.st9{fill:#D52705;}
	.st10{fill:#D62C0A;}
	.st11{fill:#D52A08;}
	.st12{fill:#F3E1D1;}
	.st13{fill:#F4E7D8;}
	.st14{fill:#F4E8D9;}
	.st15{fill:#F0D3C2;}
	.st16{fill:#F2DBCB;}
	.st17{fill:#F0D1C0;}
	.st18{fill:#F0CFBD;}
	.st19{fill:#ECB6A1;}
	.st20{fill:#E89E88;}
</style>
<g>
	<path class="st0" d="M33,0.1c5.7,0,11.3,0,17,0c2.6,1.1,5.5,0.9,8.3,1.4C71.6,4,80.5,14.6,80.6,28.1c0.1,11.3,0.1,22.6,0,33.9
		C80.5,74,75,79.9,62.9,80.9c-1.2,0.1-2.3,0.5-3.4,0.5c-2.1,0.2-4.4-0.5-6.4,0.5c-7.7,0-15.3,0-23,0c-2.1-1-4.3-0.3-6.4-0.5
		c-1.7-0.1-3.3-0.4-4.9-0.5C8.7,80,2.5,73.5,2.4,63.6c-0.2-11.8-0.1-23.6,0-35.4C2.4,14.6,11.4,4,24.7,1.5C27.5,1,30.4,1.2,33,0.1z"
		/>
	<path class="st1" d="M33,0.1c-3,2.3-6.8,2.3-10.2,3.5C12.7,7.1,2.9,15.2,3.9,29.5c0.7,10.7,0.7,21.6,0,32.4
		c-0.7,11.9,7.1,16.3,15.2,18c1.6,0.3,3.2,0.7,4.8,1c0.4,0.2,0.5,0.4,0.4,0.7c-0.1,0.2-0.2,0.3-0.4,0.3c-7.2,0-14.3-0.1-21.5,0.1
		C0.4,82,0,81.6,0,79.4C0.1,53.8,0.1,28.2,0,2.6C0,0.4,0.4,0,2.6,0C12.7,0.1,22.9,0.1,33,0.1z"/>
	<path class="st1" d="M59,80.9c5.6-1.3,11.4-1.9,15.9-6.3c2.7-2.6,4-5.6,4-9.2c0-13.6,0.1-27.2,0-40.8C78.8,16,71.5,7.8,61.6,4.1
		c-3.8-1.5-8.1-1.6-11.7-4c9.9,0,19.9,0.1,29.8,0C82,0,83,0.1,83,2.9c-0.1,25.4-0.1,50.7,0,76.1c0,2.7-0.9,3-3.2,2.9
		c-7-0.1-13.9-0.1-20.9-0.1c-0.4-0.2-0.5-0.4-0.4-0.7C58.7,81,58.8,80.9,59,80.9z"/>
	<path class="st2" d="M24,81.9c0-0.3,0-0.7,0-1c2,0.3,4.2-0.7,6,1C28,81.9,26,81.9,24,81.9z"/>
	<path class="st2" d="M59,80.9c0,0.3,0,0.7,0,1c-2,0-4,0-6,0C54.7,80.2,56.9,81.2,59,80.9z"/>
	<path class="st3" d="M41.3,24.9c-9.6,0-19.3,0-28.9,0c-4.6,0-5.6-1.5-3.7-5.8c1.6-3.8,4.6-6.5,7.9-8.8c12.8-8.7,37.1-8.6,49.9,0.2
		c3.6,2.5,6.8,5.5,8.2,9.8c0.9,2.9,0.3,4.8-3.4,4.7C61.3,24.8,51.3,24.9,41.3,24.9z"/>
	<path class="st3" d="M41.5,66c9.6,0,19.3,0,28.9,0c1.5,0,3.7-0.8,4.4,1.2c0.8,2.2-0.7,3.8-2.3,5.1c-4.7,4-10.6,4.9-16.3,5.2
		c-11.6,0.7-23.2,1.2-34.8-0.7c-4.3-0.7-8.5-1.9-11.6-5.2c-1.2-1.2-2.2-2.7-1.6-4.5c0.7-1.8,2.5-1.2,3.9-1.2
		C21.9,66,31.7,66,41.5,66z"/>
	<path class="st4" d="M48.7,45c0.3-2.4,2.2-2.1,3.8-2c1.8,0.1,2.8,1.3,2.8,3c0.1,5,0.1,10,0,14.9c0,1.4-1,2.5-2.4,2.8
		c-1.6,0.4-3-0.1-3.9-1.5c-1.3-2.1-2.4-4.2-4.3-7.4c-0.2,2.5-0.3,3.9-0.3,5.3c-0.1,2-0.9,3.6-3.1,3.8c-2.6,0.1-3.6-1.6-3.7-3.8
		c-0.1-4.5-0.1-9,0-13.5c0-1.7,0.8-3.2,2.8-3.6c1.9-0.3,3.2,0.7,4.1,2.2c0.9,1.5,1.8,3.1,2.7,4.7C50,49,47.6,46.5,48.7,45z"/>
	<path class="st5" d="M23,42.9c3.1,2.2,2.8,4.8,0.5,7.1c-2.1,2-2.4,3.5-0.3,5.7c2.1,2.1,4.8,4.8,1,7.4c-3.6,2.5-5.3-0.9-7-3.2
		c-0.6-0.8-1-1.6-1.9-3c-0.4,2.1-0.4,3.6-0.9,4.8c-1.1,2.6-4.5,3-6,0.8C6.9,60.1,8,45.3,10,42.9c3.2-2.4,4.5,2.4,6.6,1.9
		C18.8,44.4,20,40.9,23,42.9z"/>
	<path class="st4" d="M65.9,56c-1.5-2.9-0.2-4.5,2.7-4.8c3-0.2,5.8,0.3,6.3,4c0.5,3.4-0.7,6.3-4,7.8c-4,1.8-7.8,1.1-11-1.9
		c-3.4-3.2-3.9-9.5-1.3-13.8c2.3-3.7,7.3-5.4,11.8-4c2.1,0.7,4.4,1.6,3.6,4.4c-0.7,2.6-2.7,2.3-4.8,1.5c-1.8-0.7-3.8-0.5-4.8,1.4
		C63.3,52.7,63,55,65,56.9c0.2,0.3,0.5,0.4,0.8,0.2C66.3,56.8,66.3,56.4,65.9,56z"/>
	<path class="st6" d="M35,53.6c0,2.1,0.1,4.3,0,6.4c-0.1,2.3-1.3,3.7-3.7,3.9c-2.2,0.1-3.6-1.3-3.6-3.3c-0.2-4.8-0.2-9.5,0-14.3
		c0.1-2,1.3-3.4,3.6-3.3c2.4,0,3.6,1.4,3.8,3.7C35.1,49,35,51.3,35,53.6z"/>
	<path class="st7" d="M53.1,39c-4.1,3.8-6.9,3.8-10.4,0c-1.6-1-2.2-2.4-2.2-4.2c0-1.5,0.3-2.8,1.5-3.7c4.1-5,7.8-5.4,11-1.1
		c1,1.2-1.6,2.8,0.9,4.3C55.7,35.1,55.3,37.8,53.1,39z"/>
	<path class="st8" d="M10.1,41.9c-2-2-3.5-12.2-1.6-13.6c2.9-2.2,5.9-1.3,8.6,0.8c1.9,2.2,2,4.9,2.1,7.5
		C19.4,41.1,15.7,43.2,10.1,41.9z"/>
	<path class="st9" d="M41.9,39c-2.5,4.7-4.1,1.8-6-1.2c-0.8,1.6-0.5,4.2-2.9,3.7c-2.2-0.5-1.8-2.4-1.9-4c0-1.3-0.1-2.7,0-4
		c0.3-2.3-1.3-5.5,2.4-6.1c3.2-0.6,6.4-0.3,7.7,3.6c0.6,1.3,0.2,2.5-0.1,3.8C40.8,36.3,41.7,37.6,41.9,39z"/>
	<path class="st10" d="M65,28c7.4-2.2,9.8-0.3,8.6,6.9c-0.2,1,0.2,1.6,0.6,2.2c0.9,1.5,1.9,3.1-0.3,4.1c-2,1-2.8-0.9-3.7-2.3
		c-0.2-0.4-0.4-0.9-0.8-1.6C68.8,40,68.6,43,65,41C62.6,36.7,62.8,32.3,65,28z"/>
	<path class="st11" d="M18.9,29c2.3-2.9,3.8-2.4,4.3,1.1c0.4,2.3-0.5,4.8,1.2,8c1.3-3.1,0.7-5.5,0.9-7.8c0.2-1.6,0.5-3.2,2.5-3
		c1.6,0.1,1.9,1.6,2.1,3c1.1,8-0.4,10.6-6.8,11.5c-3.1,0.1-4.5-1.6-4.5-4.6C18.6,34.5,17.1,31.7,18.9,29z"/>
	<path class="st11" d="M63.5,40.8c-3,1-6,1.9-8.7-0.9c-0.3-3.6-1.7-7.3,0-10.9c2.8-2.7,5.6-3,8.5-0.1c0.5,0.8,0.2,1.6-0.3,2.3
		c-0.3,0.5-0.3,1,0.1,1.5C63.3,35.5,64.6,38.1,63.5,40.8z"/>
	<path class="st12" d="M18.9,29c0,2,0.3,3.9,0.1,5.9c-0.3,3.4,1,5.7,4.1,7c0,0.3,0,0.7,0,1c-2.8,0.6-2.8,0.6-7.9,6.3
		c0-3.9-0.9-6.7-5.1-6.3c0-0.3,0-0.7,0-1c7.7-0.8,7.7-0.8,6.9-8.4c-0.1-1.5,0-3,0.1-4.4C17.6,29,18.3,29,18.9,29z"/>
	<path class="st13" d="M63.5,40.8c1.2-3.2-2.2-2.8-3.4-4c1.1-1.2,4.5-1.1,1.9-3.9c-0.6-0.6-0.6-1.2,0.1-1.7c1.2-0.3,1.2-1.3,1.2-2.3
		c0.6-0.3,1.1-0.6,1.7-0.9c0,4.3,0,8.6,0,13C64.5,40.9,64,40.9,63.5,40.8z"/>
	<path class="st14" d="M54.8,29c0,3.6,0,7.3,0,10.9c-0.6-0.3-1.1-0.6-1.7-1c0.4-1.5,1.8-3.4-0.1-4.4c-3.9-1.9,0.1-3.1,0.1-4.7
		C53.7,29.7,54.3,29.4,54.8,29z"/>
	<path class="st15" d="M41.9,39c-0.9-1.2-2.4-2.1-1.7-4c0.6-0.6,1.1-0.6,1.7,0c0.3,1.3,0.6,2.7,1,4l-0.5,0L41.9,39z"/>
	<path class="st16" d="M48.7,45c0,1.6,0.1,3.3-0.2,4.9c-0.2,1.1-0.9,1.2-1.4,0C47.7,48.3,48.2,46.7,48.7,45z"/>
	<path class="st17" d="M41.8,35c-0.6,0-1.1,0-1.7,0c0.3-1.3,0.7-2.7,1-4c0.3,0,0.7,0.1,1,0.1C42,32.4,41.9,33.7,41.8,35z"/>
	<path class="st18" d="M65.9,56c1,0.4,1.9,0.8,3.2,1.4c-1.9,1-3.2,1.1-4.1-0.5C65.3,56.6,65.6,56.3,65.9,56z"/>
	<path class="st19" d="M46.7,36.3c-0.8-1.5-1-2.8-0.1-3.1c1.9-0.7,1,0.8,0.9,1.5C47.4,35.2,47.1,35.5,46.7,36.3z"/>
	<path class="st20" d="M62.1,31.2c0,0.6,0,1.1-0.1,1.7c-1-0.1-2.7,0.6-2.5-1.2C59.6,30.7,61.1,31,62.1,31.2z"/>
</g>
</svg>
